<?xml version="1.0" encoding="iso-8859-1"?>
<!-- Generator: Adobe Illustrator 19.0.0, SVG Export Plug-In . SVG Version: 6.00 Build 0)  -->
<svg version="1.1" id="Capa_1" xmlns="http://www.w3.org/2000/svg" xmlns:xlink="http://www.w3.org/1999/xlink" x="0px" y="0px"
	 viewBox="0 0 511.924 511.924" style="enable-background:new 0 0 511.924 511.924;" xml:space="preserve">
<path style="fill:#4CAF50;" d="M465.028,109.704L427.055,88.37c-17.067,3.392-35.221,28.117-47.573,45.269
	c-3.115,4.267-5.973,8.277-8.533,11.541c-16.657,19.114-27.012,42.902-29.653,68.117c6.902,28.431,21.579,54.38,42.389,74.944
	c14.558,14.59,14.558,38.21,0,52.8c-14.756,14.15-38.044,14.15-52.8,0c-11.705-11.73-14.156-29.824-5.995-44.245
	c-6.677-14.187-12.8-19.477-15.616-19.477c-13.058,21.507-23.357,44.572-30.656,68.651c-2.389,6.571-4.608,12.608-6.592,17.685
	c3.452,6.213,5.266,13.202,5.269,20.309c0.15,23.564-18.83,42.788-42.393,42.938c-23.564,0.15-42.788-18.83-42.938-42.393
	c-0.085-13.336,6.071-25.945,16.638-34.081c11.762-26.166,21.518-53.188,29.184-80.832c-14.933,9.515-34.133,21.589-48.619,30.421
	c-4.753,11.985-16.312,19.88-29.205,19.947c-17.673,0-32-14.327-32-32c0-17.673,14.327-32,32-32c12.8,0,33.024-16.576,49.579-32.341
	c-8.427,0.512-17.323,0.533-26.304,0.491c-5.903,6.665-14.371,10.492-23.275,10.517c-17.673,0-32-14.327-32-32s14.327-32,32-32
	c46.072,9.216,93.172-10.129,119.467-49.067c21.83-26.974,35.322-59.727,38.827-94.251L281.263,6.578
	c-15.727-8.771-34.875-8.771-50.603,0L46.895,109.725c-15.694,8.682-25.482,25.158-25.6,43.093v206.293
	c0.124,17.939,9.909,34.419,25.6,43.115l183.829,103.125c15.73,8.763,34.873,8.763,50.603,0l183.701-103.147
	c15.694-8.682,25.482-25.158,25.6-43.093V152.818C490.504,134.879,480.72,118.4,465.028,109.704z"/>
<g>
</g>
<g>
</g>
<g>
</g>
<g>
</g>
<g>
</g>
<g>
</g>
<g>
</g>
<g>
</g>
<g>
</g>
<g>
</g>
<g>
</g>
<g>
</g>
<g>
</g>
<g>
</g>
<g>
</g>
</svg>
